<?xml version="1.0" encoding="utf-8"?>
<!-- Generator: Adobe Illustrator 16.0.0, SVG Export Plug-In . SVG Version: 6.00 Build 0)  -->
<!DOCTYPE svg PUBLIC "-//W3C//DTD SVG 1.1//EN" "http://www.w3.org/Graphics/SVG/1.1/DTD/svg11.dtd">
<svg version="1.1" id="f622ef11-673b-443b-b2c3-35d70219ab5c"
	 xmlns="http://www.w3.org/2000/svg" xmlns:xlink="http://www.w3.org/1999/xlink" x="0px" y="0px" width="980.217px"
	 height="703.047px" viewBox="0 0 980.217 703.047" enable-background="new 0 0 980.217 703.047" xml:space="preserve">
<title>social influencer</title>
<path fill="#F2F2F2" d="M980.217,422.948c0,122.84-73.026,165.73-163.108,165.73S654,545.788,654,422.948
	c0-122.839,163.108-279.11,163.108-279.11S980.217,300.109,980.217,422.948z"/>
<polygon fill="#3F3D56" points="811.167,569.888 812.837,467.083 882.358,339.898 813.099,450.956 813.85,404.73 861.763,312.713 
	814.048,392.497 814.048,392.498 815.399,309.358 866.706,236.101 815.611,296.285 816.455,143.838 811.152,345.65 811.588,337.325 
	759.424,257.48 810.751,353.307 805.891,446.158 805.746,443.694 745.61,359.668 805.564,452.4 804.956,464.012 804.847,464.188 
	804.896,465.14 792.566,700.713 809.041,700.713 811.018,579.035 870.825,486.53 "/>
<path fill="#F2F2F2" d="M88.217,626.458c0,33.219-19.748,44.817-44.108,44.817S0,659.677,0,626.458s44.108-75.479,44.108-75.479
	S88.217,593.239,88.217,626.458z"/>
<polygon fill="#3F3D56" points="42.502,666.194 42.953,638.393 61.753,603.999 43.024,634.031 43.227,621.531 56.184,596.646 
	43.281,618.223 43.281,618.223 43.646,595.74 57.521,575.93 43.704,592.205 43.932,550.98 42.498,605.554 42.615,603.303 
	28.509,581.711 42.389,607.625 41.075,632.734 41.036,632.068 24.774,609.345 40.986,634.422 40.822,637.562 40.793,637.609 
	40.806,637.867 37.471,701.572 41.927,701.572 42.461,668.667 58.635,643.652 "/>
<line fill="none" stroke="#3F3D56" stroke-width="2" stroke-miterlimit="10" x1="6.217" y1="701.687" x2="894.217" y2="701.687"/>
<path fill="#00EACA" d="M894.69,671.798c0,22.469-13.356,30.313-29.834,30.313c-0.382,0-0.763-0.004-1.144-0.012
	c-0.764-0.017-1.52-0.053-2.267-0.104c-14.871-1.052-26.424-9.301-26.424-30.197c0-21.625,27.634-48.912,29.71-50.932l0.004-0.004
	c0.08-0.078,0.12-0.116,0.12-0.116S894.69,649.329,894.69,671.798z"/>
<path fill="#3F3D56" d="M863.77,698.675l10.911-15.247l-10.938,16.921l-0.029,1.751c-0.764-0.017-1.52-0.053-2.267-0.104
	l1.176-22.479l-0.009-0.174l0.02-0.033l0.111-2.123l-10.967-16.963l11.001,15.371l0.025,0.45l0.889-16.984l-9.388-17.528
	l9.503,14.547l0.925-35.212l0.004-0.12v0.116l-0.154,27.768l9.347-11.009l-9.385,13.4l-0.247,15.207l8.727-14.595l-8.764,16.832
	l-0.138,8.454l12.669-20.312l-12.717,23.263L863.77,698.675z"/>
<path fill="#3F3D56" d="M570.866,159.103h5.729c1.266,0,2.291,1.026,2.291,2.292v80.437c0,1.266-1.025,2.292-2.291,2.292h-5.729
	c-1.266,0-2.292-1.026-2.292-2.292v-80.437C568.574,160.129,569.601,159.103,570.866,159.103z"/>
<path fill="#3F3D56" d="M227.261,92.497h2.781c0.831,0,1.503,0.673,1.503,1.503v24.982c0,0.831-0.673,1.503-1.503,1.503h-2.781
	c-0.83,0-1.503-0.673-1.503-1.503V94C225.758,93.17,226.431,92.497,227.261,92.497z"/>
<path fill="#3F3D56" d="M227.242,143.74h3.135c0.936,0,1.695,0.759,1.695,1.694v45.329c0,0.936-0.759,1.695-1.695,1.695h-3.135
	c-0.936,0-1.694-0.759-1.694-1.695v-45.329C225.547,144.499,226.306,143.74,227.242,143.74z"/>
<path fill="#3F3D56" d="M227.265,209.504h2.983c0.891,0,1.613,0.722,1.613,1.613v45.914c0,0.891-0.722,1.612-1.613,1.612h-2.983
	c-0.891,0-1.613-0.722-1.613-1.612v-45.914C225.652,210.227,226.375,209.504,227.265,209.504z"/>
<path fill="#3F3D56" d="M264.729,0h273.717c19.713,0,35.693,15.98,35.693,35.694V665.68c0,19.713-15.98,35.694-35.693,35.694
	H264.729c-19.713,0-35.693-15.981-35.693-35.694V35.694C229.036,15.98,245.017,0,264.729,0z"/>
<path fill="#E6E8EC" d="M370.84,20.945h43.108c1.403,0,2.542,1.138,2.542,2.542v4.702c0,1.404-1.139,2.542-2.542,2.542H370.84
	c-1.404,0-2.542-1.138-2.542-2.542v-4.702C368.298,22.083,369.436,20.945,370.84,20.945z"/>
<circle fill="#E6E8EC" cx="429.327" cy="25.838" r="5.551"/>
<path fill="#FFFFFF" d="M552.828,45.68V655.7c-0.003,15.135-12.274,27.402-27.41,27.399h-247.66
	c-15.135,0.003-27.407-12.265-27.41-27.399V45.68c-0.001-15.137,12.269-27.409,27.405-27.41c0.002,0,0.004,0,0.005,0h37.061v4.76
	c0.004,12.463,10.106,22.566,22.57,22.57h125.949c12.466,0,22.57-10.105,22.57-22.57v-4.76h39.51
	c15.137-0.001,27.409,12.269,27.41,27.405C552.828,45.677,552.828,45.679,552.828,45.68z"/>
<circle fill="#00EACA" cx="401.588" cy="163.059" r="42.573"/>
<rect x="284.443" y="241.687" fill="#F2F2F2" width="234.289" height="28.337"/>
<rect x="284.443" y="296.313" fill="#F2F2F2" width="234.289" height="28.337"/>
<rect x="284.443" y="350.94" fill="#8DB5AD" width="234.289" height="28.337"/>
<rect x="284.443" y="405.567" fill="#F2F2F2" width="234.289" height="28.337"/>
<rect x="284.443" y="460.194" fill="#F2F2F2" width="234.289" height="28.337"/>
<rect x="284.443" y="514.821" fill="#F2F2F2" width="234.289" height="28.337"/>
<rect x="284.443" y="569.448" fill="#F2F2F2" width="234.289" height="28.337"/>
<path fill="#00EACA" d="M72.736,410.712l-1.022,7.892c-0.346,2.671-0.692,5.345-0.878,8.032c-0.62,8.939,0.535,17.915,0.231,26.871
	c-0.234,6.896-1.333,13.785-0.802,20.664c0.469,6.084,2.201,11.991,3.923,17.846l2.461,8.368c0.072,0.897,0.859,1.567,1.757,1.495
	c0.145-0.012,0.287-0.043,0.424-0.093l10.892-0.986c-0.697-3.198-1.473-6.532-1.848-9.784c-0.296-2.571-0.475-5.155-0.661-7.736
	c-0.58-8.049-1.236-16.092-1.892-24.134l-1.153-14.129c-0.5-6.128-1.006-12.293-2.549-18.245
	C80.082,420.747,77.022,415.217,72.736,410.712z"/>
<path opacity="0.1" enable-background="new    " d="M72.736,410.712l-1.022,7.892c-0.346,2.671-0.692,5.345-0.878,8.032
	c-0.62,8.939,0.535,17.915,0.231,26.871c-0.234,6.896-1.333,13.785-0.802,20.664c0.469,6.084,2.201,11.991,3.923,17.846l2.461,8.368
	c0.072,0.897,0.859,1.567,1.757,1.495c0.145-0.012,0.287-0.043,0.424-0.093l10.892-0.986c-0.697-3.198-1.473-6.532-1.848-9.784
	c-0.296-2.571-0.475-5.155-0.661-7.736c-0.58-8.049-1.236-16.092-1.892-24.134l-1.153-14.129c-0.5-6.128-1.006-12.293-2.549-18.245
	C80.082,420.747,77.022,415.217,72.736,410.712z"/>
<path fill="#3F3D56" d="M92.139,681.301c-0.641,1.256-1.199,2.554-1.671,3.883c-1.25,3.672-1.439,7.606-1.617,11.48
	c-0.085,0.748-0.016,1.505,0.204,2.225c0.535,1.393,2.075,2.099,3.516,2.485c6.033,1.622,12.394,0.096,18.615-0.461
	c6.107-0.546,12.328-0.151,18.31-1.498c0.884-0.167,1.738-0.464,2.536-0.881c1.516-0.985,2.647-2.463,3.204-4.184
	c0.182-0.44,0.305-0.903,0.364-1.376c0.198-2.038-1.579-3.809-3.514-4.479s-4.039-0.56-6.076-0.769
	c-8.615-0.886-15.565-7.441-16.952-15.99c-0.072-0.444-10.073-0.183-11.125,0.396c-1.232,0.676-1.978,2.363-2.672,3.503
	C94.137,677.478,93.097,679.365,92.139,681.301z"/>
<path opacity="0.1" enable-background="new    " d="M92.139,681.301c-0.641,1.256-1.199,2.554-1.671,3.883
	c-1.25,3.672-1.439,7.606-1.617,11.48c-0.085,0.748-0.016,1.505,0.204,2.225c0.535,1.393,2.075,2.099,3.516,2.485
	c6.033,1.622,12.394,0.096,18.615-0.461c6.107-0.546,12.328-0.151,18.31-1.498c0.884-0.167,1.738-0.464,2.536-0.881
	c1.516-0.985,2.647-2.463,3.204-4.184c0.182-0.44,0.305-0.903,0.364-1.376c0.198-2.038-1.579-3.809-3.514-4.479
	s-4.039-0.56-6.076-0.769c-8.615-0.886-15.565-7.441-16.952-15.99c-0.072-0.444-10.073-0.183-11.125,0.396
	c-1.232,0.676-1.978,2.363-2.672,3.503C94.137,677.478,93.097,679.365,92.139,681.301z"/>
<path fill="#3F3D56" d="M108.721,682.248c-0.642,1.257-1.2,2.554-1.671,3.884c-1.25,3.671-1.439,7.606-1.618,11.48
	c-0.085,0.747-0.016,1.505,0.204,2.225c0.534,1.393,2.075,2.098,3.516,2.485c6.033,1.622,12.393,0.096,18.615-0.461
	c6.107-0.547,12.328-0.151,18.31-1.498c0.884-0.167,1.738-0.464,2.536-0.881c1.516-0.986,2.647-2.463,3.204-4.185
	c0.182-0.439,0.304-0.902,0.364-1.375c0.198-2.038-1.579-3.81-3.514-4.479s-4.039-0.56-6.076-0.769
	c-8.616-0.885-15.565-7.44-16.952-15.989c-0.072-0.445-10.073-0.183-11.125,0.395c-1.232,0.676-1.978,2.363-2.672,3.503
	C110.718,678.425,109.679,680.313,108.721,682.248z"/>
<path fill="#2F2E41" d="M151.969,583.533c0.129,20.082-5.711,39.711-12.562,58.588c-2.712,7.473-5.59,14.881-8.633,22.224
	c-1.802,4.352-3.832,9.179-1.901,13.475c-5.557-2.114-11.246-3.364-17.112-2.388c2.233-4.551,2.023-9.85,2.123-14.916
	c0.194-6.879,0.935-13.732,2.214-20.494c1.965-10.289,5.336-20.26,10.019-29.63c0.949-1.976,1.604-4.08,1.942-6.245
	c0.608-4.816,0.328-9.703-0.825-14.419c-2.141-10.445-6.204-20.402-11.983-29.363c-0.019,0.198-0.037,0.401-0.059,0.601
	c-0.35,2.986-0.853,5.953-1.507,8.888c-1.312,6.22-2.841,12.443-2.613,18.696c0.246,6.632-0.165,13.272-1.227,19.824
	c-0.337,2.574-1.007,5.093-1.993,7.494c-0.641,1.438-1.478,2.79-1.982,4.278c-0.501,1.721-0.763,3.503-0.778,5.295
	c-0.748,15.122-0.011,34.474,3.081,49.297c-5.209-0.239-10.387,0.939-14.979,3.412c-3.736-10.542-6.117-25.516-7.896-36.617
	c-2.015-13.115-1.605-26.489,1.208-39.457c0.875-4.326,1.204-8.746,0.977-13.154c-0.398-8.78-2.557-17.37-4.702-25.893
	c-1.091-4.326-2.182-8.653-3.272-12.981c-1.551-6.165-3.105-12.331-4.661-18.498c-1.032-4.101-2.075-8.291-1.75-12.51
	c0.228-2.312,0.713-4.593,1.448-6.798c2.321-7.505,5.792-14.604,10.288-21.044c17.904,1.006,36.026-0.671,53.905-2.045
	c0.869-0.172,1.771-0.019,2.535,0.431c0.607,0.619,0.968,1.438,1.017,2.304c2.241,12.687,4.479,25.373,6.718,38.06
	c1.089,5.298,1.729,10.679,1.912,16.084c0.033,5.387-0.84,10.756-0.637,16.14C150.554,569.421,151.925,576.278,151.969,583.533z"/>
<path opacity="0.1" enable-background="new    " d="M115.191,560.965c-0.35,2.986-0.853,5.952-1.507,8.887
	c-3.895-6.735-8.092-13.302-11.677-20.207c-0.925-1.779-1.806-3.581-2.69-5.38c-0.88-1.798-1.761-3.596-2.642-5.395
	c-0.494-1.009-0.991-2.022-1.437-3.058c-0.728-1.492-1.287-3.061-1.666-4.677c1.305-0.239,4.518,3.276,5.483,4.193
	c1.98,1.953,3.85,4.015,5.601,6.176c2.118,2.397,4.062,4.942,5.818,7.616C112.719,552.768,114.314,556.774,115.191,560.965z"/>
<path fill="#EFB7B9" d="M130.111,376.114c0,0-9.949,15.845-8.107,19.161c1.843,3.316-31.32-2.948-31.32-2.948
	s18.055-15.845,16.213-22.478C105.055,363.218,130.111,376.114,130.111,376.114z"/>
<circle fill="#EFB7B9" cx="121.268" cy="358.427" r="22.477"/>
<path fill="#00EACA" d="M130.444,392.729c-2.406-3.348-5.672-5.982-9.453-7.627c-2.176-0.779-4.426-1.334-6.715-1.657l-8.968-1.576
	c-2.198-0.387-4.55-0.756-6.589,0.151c-1.042,0.525-1.991,1.219-2.809,2.053c-3.117,2.887-6.137,6.061-10.045,7.727
	c-1.07,0.457-2.188,0.79-3.257,1.25c-4.373,1.883-7.642,5.814-9.499,10.197c-1.948,4.598-2.005,9.582-1.851,14.574
	c-0.005,1.723,0.165,3.44,0.505,5.129c0.453,1.607,1.021,3.179,1.701,4.704c1.238,3.256,2.275,6.585,3.105,9.969
	c2.323,8.893,4.255,17.876,5.794,26.95c0.134,1.305,0.518,2.57,1.13,3.73c0.865,1.154,1.913,2.16,3.101,2.979
	c0.94,0.779,1.81,1.641,2.598,2.573c0.385,0.398,0.667,0.885,0.821,1.416c0.291,1.342-0.895,2.491-1.857,3.47
	c-1.999,2.039-3.444,4.556-4.198,7.31c-0.47,0.565-0.708,1.287-0.667,2.021c0.193,0.508,0.264,1.054,0.209,1.594
	c-0.185,0.493-0.473,0.941-0.845,1.313c-0.867,1.13-1.207,2.577-0.933,3.975c6.967,3.026,14.423,4.772,22.01,5.152
	c1.858,0.086,3.723,0.087,5.569,0.314c1.316,0.162,2.617,0.439,3.935,0.593c1.917,0.18,3.843,0.229,5.767,0.147
	c10.004-0.198,20.302-0.457,29.489-4.424c0.866-4.712-0.999-9.513-2.168-14.158c-1.86-7.389-2.329-15.051-3.713-22.543
	c-0.947-5.128-2.323-10.175-3.111-15.329c-0.789-5.154-0.974-10.499,0.443-15.518c1.256-4.446,1.635-8.975,2.936-13.408
	c1.302-4.434,2.214-9.24,0.745-13.621C141.804,396.726,136.166,392.428,130.444,392.729z"/>
<path fill="#2F2E41" d="M141.482,346.512c1.093-3.991-1.056-8.146-3.628-11.388c-2.763-3.484-6.333-6.627-10.693-7.502
	c-3.542-0.711-7.213,0.147-10.816-0.138c-3.193-0.253-6.252-1.398-9.429-1.809c-2.873-0.309-5.776-0.199-8.618,0.327
	c-2.701,0.394-5.341,1.131-7.856,2.194c-9.568,4.239-15.174,14.71-16.475,25.094c-1.301,10.384,0.98,20.846,3.248,31.062l2.05,9.235
	c2.133,9.612,4.274,19.275,4.845,29.104c0.571,9.83-0.494,19.921-4.538,28.898c13.074-7.022,23.203-18.49,28.557-32.332
	c1.454-3.801,2.53-7.745,4.141-11.482c1.385-3.216,3.159-6.262,4.388-9.541c1.385-3.704,2.05-7.64,1.959-11.594
	c-0.07-2.972-0.567-5.929-0.48-8.899c0.086-2.972,0.842-6.072,2.896-8.221c1.826-1.91,4.42-2.828,6.772-4.029
	c3.7-1.9,6.932-4.598,9.463-7.897c1.481-1.93,1.561-2.754,1.937-4.98C139.573,350.448,140.907,348.613,141.482,346.512z"/>
<path fill="#EFB7B9" d="M141.514,515.37c0.228,2.312-0.192,4.68,0.313,6.946c0.38,1.703,1.262,3.251,1.781,4.917
	c0.515,1.931,0.78,3.92,0.789,5.919c0.075,1.676-0.054,3.713-1.536,4.499c-0.651,0.345-1.432,0.352-2.109,0.641
	s-1.259,1.111-0.871,1.737c0.327,0.526,1.067,0.533,1.674,0.657c0.607,0.125,1.275,0.754,0.923,1.264
	c-0.142,0.166-0.33,0.286-0.541,0.344c-0.621,0.187-1.208,0.47-1.741,0.838c-0.539,0.384-0.816,1.038-0.717,1.692
	c0.133,0.562,0.696,0.91,1.257,0.777c0.083-0.02,0.163-0.049,0.238-0.088c-0.272,0.581-0.42,1.212-0.437,1.853
	c2.372,1.021,5.042-0.313,7.274-1.61c0.968-0.537,1.903-1.132,2.799-1.781c3.649-2.818,5.669-7.259,5.394-11.861
	c-0.104-1.142-0.278-2.274-0.524-3.394c-0.346-1.946-0.803-3.871-1.368-5.765c-0.638-1.998-1.515-3.909-2.268-5.867
	c-1.603-4.171-2.635-8.538-4.078-12.767c-0.083-0.811-0.807-1.4-1.618-1.317c-0.037,0.004-0.074,0.009-0.11,0.016
	c-1.626-0.085-3.257,0.065-4.84,0.445c-0.957,0.279-2.527,0.895-2.956,1.896c-0.387,0.903,0.261,1.712,0.672,2.485
	C140.26,510.162,141.143,512.718,141.514,515.37z"/>
<path opacity="0.1" enable-background="new    " d="M139.993,402.449c0.479,0.488,0.881,1.047,1.19,1.656
	c3.194,5.805,3.234,12.752,3.384,19.375c0.169,7.455,0.577,14.903,0.985,22.35l1.22,22.269c0.117,2.127,0.233,4.258,0.532,6.367
	c1.436,0.362,1.495,2.217,1.329,3.688c-1.027,9.088-3.584,18.442-0.907,27.188c0.103,0.451,0.318,0.868,0.626,1.212
	c-1.349-0.426-2.794-0.445-4.155-0.057c-1.334,0.281-2.618,0.77-3.948,1.072c-1.692,0.386-3.61,0.551-4.765,1.847
	c-1.305-3.93-2.343-7.942-3.109-12.012c-0.634-3.698-0.807-7.543-2.313-10.979c-0.608-1.388-1.421-2.674-2.163-3.995
	c-3.902-6.95-5.812-14.812-7.68-22.561c-0.838-3.674-1.04-7.465-0.594-11.207c0.265-1.708,0.421-3.431,0.466-5.158
	c-0.119-1.822-0.358-3.635-0.715-5.426c-0.789-5.254-0.419-10.615,1.082-15.711c1.398-4.732,2.625-9.711,5.549-13.686
	C128.932,404.706,135.059,402.517,139.993,402.449z"/>
<path fill="#00EACA" d="M141.099,401.713c0.479,0.487,0.881,1.046,1.19,1.656c3.194,5.804,3.234,12.752,3.384,19.375
	c0.169,7.455,0.577,14.902,0.985,22.349l1.22,22.269c0.117,2.128,0.233,4.258,0.532,6.368c1.436,0.362,1.495,2.217,1.329,3.688
	c-1.027,9.087-3.584,18.442-0.907,27.188c0.103,0.45,0.318,0.867,0.626,1.211c-1.349-0.426-2.794-0.445-4.155-0.056
	c-1.334,0.281-2.618,0.77-3.948,1.072c-1.692,0.385-3.61,0.55-4.765,1.846c-1.305-3.93-2.343-7.942-3.109-12.012
	c-0.634-3.697-0.807-7.542-2.313-10.979c-0.608-1.388-1.421-2.674-2.163-3.995c-3.902-6.95-5.812-14.812-7.68-22.56
	c-0.838-3.675-1.04-7.466-0.594-11.208c0.265-1.708,0.421-3.431,0.466-5.157c-0.119-1.823-0.358-3.636-0.715-5.427
	c-0.789-5.253-0.419-10.615,1.082-15.711c1.398-4.732,2.625-9.711,5.549-13.686S136.165,401.779,141.099,401.713z"/>
<g opacity="0.1">
	<path d="M137.854,335.124c-2.763-3.484-6.333-6.627-10.693-7.502c-3.542-0.711-7.213,0.147-10.816-0.138
		c-3.193-0.253-6.252-1.398-9.428-1.809c-2.874-0.309-5.776-0.199-8.618,0.327c-2.701,0.394-5.341,1.131-7.856,2.194
		c-1.359,0.605-2.655,1.34-3.872,2.196c2.242-0.849,4.567-1.456,6.938-1.811c2.842-0.525,5.745-0.636,8.618-0.327
		c3.176,0.411,6.236,1.556,9.429,1.809c3.602,0.286,7.273-0.573,10.816,0.138c4.359,0.875,7.93,4.019,10.693,7.502
		c2.571,3.242,4.721,7.396,3.628,11.388c-0.576,2.102-1.91,3.937-2.276,6.103c-0.377,2.227-0.456,3.051-1.937,4.98
		c-1.907,2.482-4.213,4.631-6.824,6.355c0.721-0.344,1.447-0.678,2.151-1.037c3.7-1.9,6.932-4.598,9.463-7.897
		c1.481-1.931,1.561-2.755,1.937-4.98c0.367-2.166,1.701-4.001,2.276-6.103C142.576,342.521,140.426,338.366,137.854,335.124z"/>
	<path d="M121.034,369.521c0.386-0.4,0.807-0.766,1.257-1.092c-2.148,1.04-4.407,1.955-6.047,3.671
		c-2.054,2.148-2.81,5.249-2.896,8.22c-0.086,2.972,0.411,5.93,0.48,8.9c0.091,3.954-0.574,7.89-1.959,11.594
		c-1.228,3.279-3.002,6.325-4.388,9.541c-1.61,3.737-2.687,7.682-4.141,11.482c-4.645,11.998-12.892,22.262-23.608,29.38
		c-0.055,0.124-0.104,0.25-0.159,0.373c13.074-7.022,23.203-18.491,28.557-32.332c1.454-3.801,2.53-7.745,4.141-11.482
		c1.385-3.216,3.159-6.262,4.388-9.541c1.385-3.704,2.05-7.64,1.959-11.594c-0.07-2.972-0.567-5.929-0.48-8.899
		C118.224,374.771,118.98,371.67,121.034,369.521z"/>
</g>
<path fill="#2F2E41" d="M614.665,699.887c-1.069,1.291-2.901,1.551-4.56,1.722c-2.142,0.311-4.313,0.352-6.465,0.123
	c-2.557-0.38-4.088,1.073-6.424-0.045c-1.413-0.676-3.588,0.677-5,0c-1.937-0.927-8.624-1.118-9.803-2.927
	c-1.179-1.81-1.059-4.667,0.805-5.734c0.529-0.252,1.074-0.465,1.634-0.64c3.12-1.241,9.442-10.61,12.763-11.091
	c1.647-0.076,3.284,0.31,4.724,1.113c3.274,1.453,9.055,2.601,10.483,6.289C613.936,691.571,616.98,697.078,614.665,699.887z"/>
<path fill="#2F2E41" d="M638.185,699.146c1.07,1.291,2.902,1.551,4.56,1.722c2.142,0.311,4.313,0.352,6.466,0.123
	c2.557-0.38,5.671,1.814,8.007,0.696c1.412-0.676,3.587-0.323,5-1c1.937-0.927,11.041,1.141,12.22-0.669
	c1.179-1.809,1.059-4.666-0.806-5.734c-0.528-0.251-1.074-0.464-1.633-0.639c-3.121-1.242-13.443-12.611-16.764-13.091
	c-1.647-0.076-3.283,0.309-4.723,1.113c-3.274,1.453-9.056,2.601-10.483,6.289C638.915,690.83,635.87,696.337,638.185,699.146z"/>
<path fill="#2F2E41" d="M648.525,494.949c1.022,1.966,1.917,3.996,2.675,6.079c9.078,24.015,9.838,50.259,10.213,75.93
	c-0.031,4.174,0.207,8.346,0.714,12.489c0.381,2.627,0.981,5.282,0.594,7.909c-0.335,2.271-1.403,4.51-0.978,6.766
	c0.191,1.012,0.676,1.949,0.867,2.961c0.147,1.109,0.117,2.235-0.091,3.335l-1.217,9.056c-0.693,5.158-2.293,10.127-2.206,15.331
	c0.06,3.55,0.119,7.106,0.515,10.635c0.401,3.582,1.148,7.138,1.187,10.742c0.028,2.699-0.341,5.385-0.58,8.074
	c-0.337,3.797-0.413,7.613-0.229,11.421c0.143,2.935,0.479,5.981,2.035,8.473c-1.743,2.5-3.47,4.739-6.261,5.964
	c-5.672,2.486-12.18,1.643-18.309,0.753c0.34-1.131,0.865-2.412,0.375-3.487c-0.288-0.52-0.642-1.001-1.052-1.432
	c-1.338-1.903-2.267-4.062-2.728-6.343c-0.742-2.703-1.484-5.613,0.039-8.208c0.525-0.924,0.757-1.985,0.664-3.044
	c-1.269-17.024-5.057-34.639-1.568-51.347c0.372-1.783,0.816-3.556,1.024-5.366c0.188-2.604,0.219-5.216,0.093-7.822l-0.072-3.63
	c-0.182-3.872-0.025-7.842-0.802-11.672c-0.556-2.743-1.595-5.5-0.314-8.295c0.565-1.3,0.496-2.788-0.189-4.028
	c-2.692-4.717-4.858-9.716-6.458-14.906c-0.332-1.45-0.786-2.87-1.359-4.243c-0.781-1.447-1.679-2.828-2.684-4.13
	c-3.037-4.404-4.854-9.515-6.637-14.559c0.19-0.463,0.044-1.106-0.452-1.04c-0.489,0.125-0.91,0.439-1.169,0.874
	c-2.443,3.283-2.648,7.663-2.758,11.754c-0.186,3.801-0.121,7.61,0.194,11.402c0.209,1.987,0.556,3.958,0.733,5.948
	c0.234,3.713,0.175,7.438-0.176,11.142l-1.247,18.224c-0.17,1.507-0.079,3.031,0.269,4.507c0.8,2.555,1.19,5.22,1.154,7.896
	c-0.328,11.009,0.624,22.018,2.837,32.807c0.608,2.979,1.312,5.938,1.83,8.935c1.218,7.061,1.385,14.255,1.549,21.417
	c0.101,4.405,0.173,8.967-1.562,13.017c-0.678,1.249-1.176,2.587-1.479,3.975c-0.006,0.716-0.102,1.428-0.283,2.12
	c-0.509,1.311-2.037,1.869-3.411,2.168c-2.582,0.562-5.23,0.75-7.865,0.561c-0.619-0.011-1.229-0.146-1.794-0.398
	c-0.982-0.51-1.504-1.589-2.252-2.405c-1.612-1.761-4.292-2.3-5.761-4.183c-1.837-2.354-1.065-5.764,0.027-8.542
	s2.446-5.795,1.506-8.628c-1.109-3.34-5.041-5.138-6.097-8.495c3.013-13.537-4.386-27.538-3.752-41.393
	c0.148-3.228,0.708-6.431,0.72-9.661c0.028-8.321-3.576-16.418-2.982-24.718c1.506-21.093-5.678-42.149-8.721-63.075
	c-0.577-3.123-0.793-6.303-0.643-9.476c0.452-5.238,2.884-10.112,5.808-14.481c2.096-3.131,4.615-6.194,8.086-7.659
	c2.858-1.206,6.061-1.2,9.163-1.177c7.739,0.061,15.479,0.12,23.217,0.26c5.267-0.074,10.526,0.396,15.695,1.404
	C640.358,492.389,644.274,494.341,648.525,494.949z"/>
<path fill="#A1616A" d="M523.479,398.793c-0.75-3.668,0.667-7.594-0.441-11.17c-0.399-1.29-1.381-2.631-2.73-2.594
	c-1.312,0.037-2.199,1.32-3.362,1.929c-1.874,0.98-4.15,0.09-6.023-0.892c-1.872-0.982-3.961-2.095-5.992-1.506
	c-0.238,1.272,0.62,2.486,1.555,3.381c1.036,0.783,1.893,1.776,2.515,2.916c0.305,1.23,0.42,2.501,0.343,3.768
	c0.213,2.906,2.054,5.408,3.893,7.669c2.964,3.643,6.11,7.132,9.428,10.455c-0.006-0.006,5.033-6.241,4.937-7.331
	c-0.091-1.027-1.786-1.988-2.402-2.816C524.353,401.473,523.767,400.173,523.479,398.793z"/>
<path fill="#A1616A" d="M673.54,475.593c0.449,1.166,0.786,2.372,1.006,3.603c1.3,6.3,2.119,12.688,2.927,19.071
	c0.216,1.703,0.431,3.409,0.497,5.125c0.229,4.073-0.609,8.136-2.431,11.787c-1.854,3.66-5.003,6.498-8.835,7.961
	c-1.181,0.42-2.831,0.496-3.347-0.646c-0.184-0.528-0.179-1.104,0.012-1.629c0.466-1.7,1.414-3.226,2.029-4.877
	c0.913-2.467,1.065-5.151,0.438-7.706c-0.242-0.977-0.754-2.066-1.741-2.262c0.493,2.253,0.078,4.609-1.154,6.558
	c-0.281,0.543-0.765,0.953-1.347,1.142c-0.841,0.084-1.628-0.424-1.897-1.225c-0.24-0.786-0.293-1.617-0.152-2.427
	c0.316-4.094,0.939-8.158,1.864-12.159c1.101-4.392,2.846-8.725,2.733-13.25c-0.102-4.102-1.735-8.129-1.278-12.206
	c0.007-0.252,0.088-0.496,0.234-0.702c0.143-0.143,0.318-0.251,0.511-0.314c1.145-0.474,2.323-0.863,3.524-1.167
	c0.709-0.179,3.134-1.021,3.813-0.645c0.552,0.306,0.721,2.132,0.996,2.751C672.43,473.471,673.079,474.485,673.54,475.593z"/>
<circle fill="#A1616A" cx="592.607" cy="337.347" r="16.747"/>
<path fill="#A1616A" d="M607.613,349.467c-0.002,1.067,0.083,2.133,0.254,3.187c0.23,1.064,0.558,2.107,0.976,3.115
	c0.561,1.637,1.35,3.186,2.346,4.602c1.012,1.424,2.526,2.41,4.238,2.761c-11.447,5.365-23.667,8.896-36.211,10.465
	c1.977-1.315,3.621-3.07,4.804-5.128c0.627-1.322,1.056-2.729,1.271-4.176c1.068-6.055,0.526-12.283-1.573-18.061
	c-0.208-0.57-0.411-1.269-0.018-1.73c0.168-0.171,0.371-0.303,0.595-0.386c4.974-2.106,10.346-3.108,15.744-2.937
	c1.38,0.01,2.759,0.071,4.135,0.17c0.74,0.053,2.375-0.102,2.963,0.44c0.702,0.647,0.351,2.655,0.372,3.532L607.613,349.467z"/>
<path fill="#D0CDE1" d="M616.474,361.65c-5.068-6.496-13.913-8.7-21.438-5.341c-7.971,3.806-11.896,12.942-18.907,18.316
	c-1.595,1.192-3.294,2.239-5.076,3.128c-1.053,0.581-2.175,1.025-3.341,1.321c-1.311,0.289-2.679,0.249-3.983,0.562
	c-2.485,0.73-4.604,2.374-5.928,4.601c-0.656,1.164-1.384,2.287-2.178,3.361c-0.733,0.87-1.644,1.573-2.418,2.406
	c-2.788,2.995-3.545,7.297-4.181,11.339c-2.181,2.297-4.562,4.396-7.112,6.273c-0.803,0.617-1.693,1.109-2.642,1.461
	c-2.453,0.795-5.158-0.216-7.248-1.726c-2.091-1.51-3.794-3.5-5.854-5.051c-1.894,2.707-3.873,5.423-5.891,8.039
	c-0.306,0.498-0.77,0.878-1.317,1.08c-0.379,1.274,0.53,2.596,1.211,3.738l3.651,6.137c1.207,2.234,2.688,4.309,4.408,6.176
	c1.744,1.879,4.128,3.038,6.683,3.251c1.612-0.015,3.209-0.32,4.713-0.902c6.959-2.341,13.348-6.076,19.968-9.25
	c1.199-0.686,2.542-1.08,3.922-1.15c1.417-0.038,2.685,0.875,3.099,2.23c0.76,3.834,1.514,7.653,2.558,11.419
	c0.983,3.552,1.898,7.122,2.743,10.71c0.563,2.196,0.967,4.431,1.205,6.685c0.109,1.28,0.121,2.566,0.133,3.852l0.141,15.525
	c0.015,1.671-0.938,2.714-1.671,4.216c-1.124,2.331-1.294,5.008-0.473,7.462c0.412,1.211,1.057,2.33,1.513,3.525
	c1.104,2.889,1.062,6.069,1.004,9.162l-0.132,7.084c-0.033,0.294,0.02,0.591,0.152,0.854c0.433,0.676,1.475,0.28,2.134-0.177
	l3.313-2.296c4.432,0.611,8.909,0.827,13.38,0.646c12.714-0.184,25.432,0.322,38.116,1.21c4.232,0.296,8.606,0.617,12.607-0.795
	c2.03-0.716,3.9-1.861,5.976-2.436c0.856-0.134,1.669-0.468,2.371-0.977c1.161-1.074,0.853-2.959,0.379-4.468
	c-0.414-1.32-0.885-2.621-1.411-3.903c-0.542-1.178-0.984-2.399-1.321-3.651c-0.635-2.826-0.017-6.092-1.776-8.393
	c-3.938-5.151-1.15-13.076-2.804-19.346c-0.534-2.028-1.324-3.984-1.826-6.021c-0.314-1.279-0.513-2.583-0.712-3.885
	c-0.518-2.816-0.775-5.675-0.768-8.538c0.048-1.433,0.229-2.857,0.408-4.28l1.251-9.876c1.564,2.92,2.651,6.072,3.22,9.336
	c1.139,4.875,2.541,9.685,4.2,14.408c0.943,2.849,1.887,5.697,2.905,8.52c0.646,1.606,1.143,3.269,1.484,4.965
	c0.226,1.369,0.231,2.765,0.391,4.143c0.343,2.955,1.376,5.787,3.018,8.269c0.304,0.575,0.806,1.021,1.413,1.254
	c0.41,0.076,0.832,0.059,1.234-0.05c4.421-0.873,8.7-2.354,12.716-4.399c0.855-0.354,1.598-0.933,2.147-1.677
	c1.081-1.758-0.128-3.953-0.653-5.948c-0.562-2.139-0.432-4.711-2.116-6.145c-5.864-4.99-2.953-15.124-5.889-22.243
	c-0.515-1.25-1.115-2.466-1.56-3.742c-0.34-0.976-0.586-1.981-0.834-2.984c-2.049-8.292-4.242-16.548-6.579-24.765
	c-2.423-8.521-2.164-17.396-5.214-25.712c-0.574-1.743-1.323-3.423-2.235-5.016c-1.032-1.663-2.412-3.083-4.044-4.165
	c-4.427-2.928-8.896-5.42-14.097-6.482S621.781,361.627,616.474,361.65z"/>
<path fill="#2F2E41" d="M577.389,341.446c-2.252-1.213-1.658-4.505-2.041-7.033c-0.787-5.202-6.665-8.288-8.045-13.364
	c1.585,0.195,3.193-0.033,4.662-0.66c0.284-1.686-0.05-3.417-0.939-4.876c4.835-1.964,8.747-5.818,13.656-7.588
	c6.173-2.226,13.048-0.86,19.275,1.209c3.106,1.033,6.34,2.373,8.219,5.055c2.063,2.946,2.032,6.822,1.921,10.417
	c-0.174,5.638-0.396,11.477-2.906,16.528c-3.195,6.431-12.243,12.387-19.719,10.645c-3.109-0.725-4.024-2.677-5.335-5.378
	c-0.815-1.682-1.121-3.634-2.958-4.508C581.384,341.037,579.21,342.427,577.389,341.446z"/>
<g opacity="0.1">
	<path d="M645.299,461.522c0.021,0.444,0.033,0.893,0.037,1.343C645.315,462.422,645.304,461.974,645.299,461.522z"/>
	<path d="M572.762,478.346c1.104,2.889,1.062,6.07,1.004,9.162c-0.016,0.807-0.03,1.614-0.045,2.421
		c-0.07-1.667-0.394-3.314-0.959-4.885c-0.456-1.194-1.101-2.313-1.513-3.524c-0.706-2.116-0.681-4.409,0.074-6.51
		C571.735,476.148,572.33,477.214,572.762,478.346z"/>
</g>
<g opacity="0.1">
	<path d="M571.965,317.952l-0.016,0.006c-0.152-0.866-0.466-1.696-0.924-2.447c0.284-0.115,0.564-0.238,0.842-0.366
		C572.088,316.065,572.121,317.02,571.965,317.952z"/>
</g>
<g>
	<path fill="#FF6584" d="M44.217,283.812l-3.947-3.561c-14.017-12.87-23.271-21.223-23.271-31.628
		c-0.143-8.174,6.367-14.916,14.541-15.06c0.143-0.002,0.286-0.003,0.429-0.001c4.729,0.025,9.208,2.128,12.249,5.75
		c3.04-3.623,7.519-5.726,12.248-5.75c8.175-0.094,14.878,6.457,14.972,14.631c0.001,0.143,0.001,0.287-0.001,0.429
		c0,10.405-9.254,18.758-23.271,31.628L44.217,283.812z"/>
	<path fill="none" stroke="#3F3D56" stroke-width="2" stroke-miterlimit="10" d="M51.217,274.812l-3.947-3.561
		c-14.017-12.87-23.271-21.223-23.271-31.628c-0.143-8.174,6.367-14.916,14.541-15.06c0.143-0.002,0.286-0.003,0.429-0.001
		c4.729,0.025,9.208,2.128,12.249,5.75c3.04-3.623,7.519-5.726,12.248-5.75c8.175-0.094,14.878,6.457,14.972,14.631
		c0.001,0.143,0.001,0.287-0.001,0.429c0,10.405-9.254,18.758-23.271,31.628L51.217,274.812z"/>
</g>
<g>
	<path fill="#FF6584" d="M579.69,184.685l-2.21-1.993c-7.848-7.205-13.028-11.882-13.028-17.707
		c-0.081-4.576,3.564-8.351,8.141-8.431c0.08-0.001,0.159-0.001,0.24,0c2.647,0.014,5.154,1.191,6.857,3.219
		c1.701-2.028,4.209-3.206,6.856-3.219c4.576-0.053,8.329,3.615,8.382,8.191c0.001,0.08,0.001,0.16-0.001,0.24
		c0,5.825-5.181,10.502-13.027,17.707L579.69,184.685z"/>
	<path fill="none" stroke="#3F3D56" stroke-width="2" stroke-miterlimit="10" d="M583.609,179.646l-2.21-1.994
		c-7.848-7.205-13.028-11.881-13.028-17.707c-0.081-4.576,3.564-8.351,8.141-8.431c0.08-0.001,0.159-0.001,0.24,0
		c2.647,0.014,5.154,1.191,6.857,3.219c1.701-2.028,4.209-3.205,6.856-3.219c4.576-0.053,8.329,3.615,8.382,8.191
		c0.001,0.08,0.001,0.16-0.001,0.24c0,5.825-5.181,10.501-13.027,17.707L583.609,179.646z"/>
</g>
</svg>
